<?xml version="1.0" encoding="utf-8"?>
<!-- Generator: Adobe Illustrator 16.0.0, SVG Export Plug-In . SVG Version: 6.00 Build 0)  -->
<!DOCTYPE svg PUBLIC "-//W3C//DTD SVG 1.1//EN" "http://www.w3.org/Graphics/SVG/1.1/DTD/svg11.dtd">
<svg version="1.1" xmlns="http://www.w3.org/2000/svg" xmlns:xlink="http://www.w3.org/1999/xlink" x="0px" y="0px" width="100px"
	 height="100px" viewBox="0 0 100 100" enable-background="new 0 0 100 100" xml:space="preserve">
<g id="icons">
	<g id="facebook">
		<path d="M15.3,91.695c-2.887,0-3.847-0.4-5.372-2.166c-1.935-2.24-1.917-3.628-1.746-16.901C8.259,66.67,8.364,58.51,8.364,46.687
			l0-4.865C8.357,14.722,8.357,13.664,10.56,10.554c1.95-2.755,3.906-2.733,19.131-2.566c5.159,0.057,12.226,0.134,21.436,0.134
			c8.441,0,14.928-0.056,19.665-0.096c14.778-0.127,15.982-0.137,18.127,2.122c2.385,2.51,2.382,3.885,2.344,26.863
			c-0.006,3.458-0.012,7.416-0.012,11.955c0,17.323-0.238,34.428-0.24,34.598c-0.012,0.829-0.709,1.454-1.521,1.479
			c-0.829-0.012-1.491-0.693-1.479-1.521c0.002-0.171,0.24-17.254,0.24-34.556c0-4.541,0.006-8.5,0.012-11.96
			c0.036-21.52,0.002-23.189-1.519-24.791c-1.219-1.284-2.282-1.306-15.926-1.188c-4.742,0.041-11.237,0.096-19.691,0.096
			c-9.227,0-16.303-0.078-21.469-0.134c-13.84-0.153-15.646-0.117-16.65,1.3c-1.65,2.331-1.65,4.385-1.644,29.533l0,4.866
			c0,11.843-0.105,20.014-0.182,25.98c-0.16,12.377-0.141,13.561,1.017,14.901c1.063,1.231,1.063,1.233,6.361,1.04
			c2.652-0.095,6.659-0.24,12.536-0.24c4.419,0,8.165,0.017,11.337,0.031c9.427,0.043,15.133,0.068,15.95-0.595c0,0,0,0,0,0
			c-0.015,0,0.01-0.118,0.01-0.424c0-1.092-0.016-2.56-0.036-4.322c-0.049-4.436-0.117-10.512-0.011-17.28
			c0.12-7.624,6.154-12.25,11.592-14.876H59.767c-0.441,3.227-2.314,5.613-5.255,6.635c-2.841,0.985-6.021,0.377-7.563-1.451
			c-1.093-1.295-1.359-2.988-0.694-4.417c1.162-2.5,4.636-3.767,10.328-3.767h0.333c0.013-0.484,0.025-0.96,0.037-1.428
			c0.214-8.518,0.369-14.672,5.148-19.528c5.483-5.573,16.875-2.132,17.358-1.983c0.791,0.245,1.233,1.083,0.989,1.875
			c-0.243,0.791-1.083,1.234-1.875,0.992c-0.101-0.032-10.133-3.05-14.334,1.221c-3.949,4.012-4.083,9.377-4.288,17.499
			c-0.011,0.444-0.022,0.895-0.035,1.353h18.881c0.77,0,1.414,0.583,1.492,1.349c0.078,0.766-0.438,1.466-1.191,1.621
			c-0.176,0.036-17.576,3.732-17.751,14.953c-0.106,6.729-0.039,12.781,0.01,17.2c0.02,1.776,0.036,3.254,0.036,4.355
			c0,0.774-0.101,1.763-0.887,2.545c-1.554,1.548-4.399,1.537-18.086,1.474c-3.169-0.014-6.91-0.031-11.324-0.031
			c-5.822,0-9.797,0.143-12.427,0.238C17.304,91.656,16.207,91.695,15.3,91.695z M56.582,50.902c-6.342,0-7.45,1.692-7.607,2.031
			c-0.244,0.525,0.105,1.027,0.267,1.218c0.642,0.762,2.516,1.165,4.286,0.551c1.041-0.362,2.707-1.32,3.199-3.801H56.582z"/>
	</g>
</g>
<g id="differantly.com">
</g>
</svg>
