<?xml version="1.0" encoding="utf-8"?>
<!DOCTYPE svg PUBLIC "-//W3C//DTD SVG 1.1//EN" "http://www.w3.org/Graphics/SVG/1.1/DTD/svg11.dtd">

<svg version="1.1" xmlns="http://www.w3.org/2000/svg" xmlns:xlink="http://www.w3.org/1999/xlink" width="14px" height="14px">
<path fill-rule="evenodd"  fill="rgb(0, 0, 0)"
 d="M13.998,13.294 L13.291,14.001 L9.847,10.562 C8.803,11.440 7.473,11.990 6.004,11.990 C2.693,11.990 -0.000,9.301 -0.000,5.994 C-0.000,2.689 2.693,-0.001 6.004,-0.001 C9.315,-0.001 12.009,2.689 12.009,5.994 C12.009,7.473 11.450,8.812 10.557,9.858 L13.998,13.294 ZM6.004,0.998 C3.245,0.998 1.000,3.240 1.000,5.994 C1.000,8.750 3.245,10.991 6.004,10.991 C8.763,10.991 11.008,8.750 11.008,5.994 C11.008,3.240 8.763,0.998 6.004,0.998 Z"/>
</svg>
