<?xml version="1.0" encoding="utf-8"?><!DOCTYPE svg PUBLIC "-//W3C//DTD SVG 1.1//EN" "http://www.w3.org/Graphics/SVG/1.1/DTD/svg11.dtd"><svg xmlns="http://www.w3.org/2000/svg" xmlns:xlink="http://www.w3.org/1999/xlink"><symbol viewBox="0 0 18 11" id="arrow-left"><path fill-rule="evenodd" d="M18 6H1.928L6 10.245 5.276 11 0 5.5 5.276 0 6 .754 1.927 5H18v1z"/></symbol><symbol viewBox="0 0 100 100" id="arrow-right"><use xlink:href="#arrow-left" transform="rotate(180 50 50)"/></symbol><symbol viewBox="0 0 100 100" id="facebook"><path d="M15.3 91.695c-2.887 0-3.847-.4-5.372-2.166-1.935-2.24-1.917-3.628-1.746-16.901.077-5.958.182-14.118.182-25.941v-4.865c-.007-27.1-.007-28.158 2.196-31.268 1.95-2.755 3.906-2.733 19.131-2.566 5.159.057 12.226.134 21.436.134 8.441 0 14.928-.056 19.665-.096 14.778-.127 15.982-.137 18.127 2.122 2.385 2.51 2.382 3.885 2.344 26.863-.006 3.458-.012 7.416-.012 11.955 0 17.323-.238 34.428-.24 34.598-.012.829-.709 1.454-1.521 1.479a1.5 1.5 0 0 1-1.479-1.521c.002-.171.24-17.254.24-34.556 0-4.541.006-8.5.012-11.96.036-21.52.002-23.189-1.519-24.791-1.219-1.284-2.282-1.306-15.926-1.188-4.742.041-11.237.096-19.691.096-9.227 0-16.303-.078-21.469-.134-13.84-.153-15.646-.117-16.65 1.3-1.65 2.331-1.65 4.385-1.644 29.533v4.866c0 11.843-.105 20.014-.182 25.98-.16 12.377-.141 13.561 1.017 14.901 1.063 1.231 1.063 1.233 6.361 1.04 2.652-.095 6.659-.24 12.536-.24 4.419 0 8.165.017 11.337.031 9.427.043 15.133.068 15.95-.595-.015 0 .01-.118.01-.424 0-1.092-.016-2.56-.036-4.322-.049-4.436-.117-10.512-.011-17.28.12-7.624 6.154-12.25 11.592-14.876H59.767c-.441 3.227-2.314 5.613-5.255 6.635-2.841.985-6.021.377-7.563-1.451-1.093-1.295-1.359-2.988-.694-4.417 1.162-2.5 4.636-3.767 10.328-3.767h.333l.037-1.428c.214-8.518.369-14.672 5.148-19.528 5.483-5.573 16.875-2.132 17.358-1.983a1.501 1.501 0 0 1-.886 2.867c-.101-.032-10.133-3.05-14.334 1.221-3.949 4.012-4.083 9.377-4.288 17.499-.011.444-.022.895-.035 1.353h18.881a1.5 1.5 0 0 1 .301 2.97c-.176.036-17.576 3.732-17.751 14.953-.106 6.729-.039 12.781.01 17.2.02 1.776.036 3.254.036 4.355 0 .774-.101 1.763-.887 2.545-1.554 1.548-4.399 1.537-18.086 1.474-3.169-.014-6.91-.031-11.324-.031-5.822 0-9.797.143-12.427.238-1.365.048-2.462.087-3.369.087zm41.282-40.793c-6.342 0-7.45 1.692-7.607 2.031-.244.525.105 1.027.267 1.218.642.762 2.516 1.165 4.286.551 1.041-.362 2.707-1.32 3.199-3.801h-.145z"/></symbol><symbol viewBox="0 0 100 100" id="facebook-rotate"><use xlink:href="#facebook" transform="rotate(180 50 50)"/></symbol><symbol viewBox="0 0 28 16" id="menu"><path d="M10 8V7h18v1H10zM0 0h18v1H0V0zm18 16H0v-1h18v1z" fill="currentColor" fill-rule="evenodd"/></symbol><symbol viewBox="0 0 14 14" id="search"><path fill-rule="evenodd" d="M13.998 13.294l-.707.707-3.444-3.439c-1.044.878-2.374 1.428-3.843 1.428C2.693 11.99 0 9.301 0 5.994 0 2.689 2.693-.001 6.004-.001c3.311 0 6.005 2.69 6.005 5.995 0 1.479-.559 2.818-1.452 3.864l3.441 3.436zM6.004.998A5.006 5.006 0 0 0 1 5.994a5.006 5.006 0 0 0 5.004 4.997 5.006 5.006 0 0 0 5.004-4.997A5.006 5.006 0 0 0 6.004.998z"/></symbol><symbol viewBox="0 0 54 50" id="star"><path fill-rule="evenodd" d="M27.46 0l8.187 16.459 18.305 2.639L40.706 31.91 43.833 50 27.46 41.459 11.087 50l3.127-18.09L.968 19.098l18.305-2.639L27.46 0z"/></symbol></svg>